# xmcd
#
# Track frame offsets: 
#        150
#        81235
#        159051
#        176440
#        209493
#        224380
#
# Disc length: 3544 seconds
#
# Revision: 1
# Processed by: cddbd v1.5.2PL0 Copyright (c) Steve Scherf et al.
# Submitted via: ExactAudioCopy v0.95b4
#
DISCID=490dd606
DTITLE=Michel Plasson and Dresdner Philharmonie - R. Strauss Edition [CD
DTITLE=19) - Taillefer, Wandrers Sturmlied, Dei Tageszeiten
DYEAR=1997
DGENRE=Classical
TTITLE0=Taillefer, op.52
TTITLE1=Wandrers Sturmlied, op.14
TTITLE2=Die Tageszelten, op.76 - I. Der Morgen
TTITLE3=Die Tageszelten, op.76 - II. Mittagsruh
TTITLE4=Die Tageszelten, op.76 - III. Der Abend
TTITLE5=Die Tageszelten, op.76 - IV. Die Nacht
EXTD=YEAR: 1997
EXTT0=
EXTT1=
EXTT2=
EXTT3=
EXTT4=
EXTT5=
PLAYORDER=
